<?xml version="1.0" encoding="utf-8"?>
<!-- Generator: Adobe Illustrator 24.3.0, SVG Export Plug-In . SVG Version: 6.00 Build 0)  -->
<svg version="1.1" id="Layer_1" xmlns="http://www.w3.org/2000/svg" xmlns:xlink="http://www.w3.org/1999/xlink" x="0px" y="0px"
	 viewBox="0 0 817.02 482.04" style="enable-background:new 0 0 817.02 482.04;" xml:space="preserve">
<style type="text/css">
	.st0{fill:#6610F2;}
</style>
<g>
	<rect x="596.56" y="352.68" class="st0" width="167.49" height="55.83"/>
	<g>
		<path class="st0" d="M493.21,283.29c-0.1-0.25-0.21-0.51-0.31-0.76l-0.03-0.07c0-0.01,0-0.01-0.01-0.02
			c-0.13-0.33-0.27-0.67-0.4-1.01c0-0.01-0.01-0.02-0.01-0.04c-2.2-5.65-3.95-11.51-5.21-17.56l0-0.01l0,0
			c-0.24-1.13-0.45-2.27-0.66-3.42c-0.02-0.13-0.04-0.25-0.06-0.37c-0.05-0.31-0.1-0.61-0.16-0.92c-0.04-0.25-0.08-0.51-0.12-0.76
			c-0.03-0.17-0.05-0.34-0.08-0.52c-0.06-0.37-0.11-0.74-0.16-1.11c-0.01-0.06-0.02-0.12-0.02-0.18c-0.66-4.69-1.01-9.39-1.07-14.06
			c0,0,0-0.05,0-0.07c0-0.38-0.01-0.77-0.01-1.15c0-0.08,0-0.17,0-0.25c0-0.11,0-0.22,0-0.33c0-0.11,0-0.22,0-0.33
			c0-0.2,0-0.4,0.01-0.6c0-0.08,0-0.16,0-0.24c0.01-0.38,0.01-0.76,0.02-1.14c0-0.13,0.01-0.25,0.01-0.37
			c0.01-0.37,0.02-0.75,0.04-1.12c0-0.12,0.01-0.24,0.01-0.36c0.01-0.38,0.03-0.75,0.05-1.13c0.01-0.11,0.01-0.23,0.02-0.34
			c0.02-0.32,0.04-0.65,0.06-0.97c0.01-0.1,0.01-0.2,0.02-0.3c0.02-0.38,0.05-0.76,0.08-1.13c0.01-0.12,0.02-0.24,0.03-0.36
			c0.03-0.37,0.06-0.74,0.09-1.11c0.01-0.11,0.02-0.23,0.03-0.34c0.03-0.38,0.07-0.76,0.11-1.14c0.01-0.08,0.02-0.17,0.03-0.25
			c0.04-0.34,0.07-0.68,0.11-1.02c0.01-0.09,0.02-0.19,0.03-0.28c0.04-0.37,0.09-0.74,0.13-1.11c0.02-0.13,0.03-0.26,0.05-0.39
			c0.05-0.36,0.09-0.72,0.14-1.08c0.02-0.11,0.03-0.23,0.05-0.34c0.05-0.35,0.1-0.69,0.15-1.04c0.02-0.1,0.03-0.21,0.05-0.31
			c0.05-0.32,0.1-0.65,0.16-0.97c0.02-0.12,0.04-0.24,0.06-0.36c0.06-0.35,0.12-0.71,0.18-1.06c0.02-0.13,0.05-0.26,0.07-0.39
			c0.06-0.35,0.13-0.7,0.19-1.04c0.02-0.12,0.05-0.24,0.07-0.36c0.06-0.32,0.12-0.64,0.19-0.95c0.02-0.11,0.04-0.22,0.07-0.33
			c0.07-0.34,0.14-0.67,0.21-1.01c0.02-0.11,0.05-0.22,0.07-0.32c0.08-0.36,0.16-0.71,0.24-1.07c0.03-0.12,0.05-0.23,0.08-0.35
			c0.08-0.34,0.16-0.68,0.24-1.02l0,0c3.22-13.26,8.82-25.59,16.31-36.54c11.7-17.19,28.29-31.31,48.78-39.95
			c13.35-5.66,28.03-8.79,43.42-8.79c61.57,0,111.66,50.09,111.66,111.66c0,37.33-18.41,70.44-46.64,90.72h75.79
			c16.88-26.14,26.68-57.29,26.68-90.72c0-92.5-74.99-167.49-167.49-167.49s-167.49,74.99-167.49,167.49
			c0,72.58,46.17,134.39,110.75,157.63L493.21,283.29L493.21,283.29z"/>
		<path class="st0" d="M596.56,352.68c-21.96,0-42.46-6.37-59.75-17.37l28.39,70.27c10.16,1.92,20.64,2.93,31.36,2.93
			c49.6,0,94.17-21.56,124.84-55.83H596.56z"/>
	</g>
	<path class="st0" d="M532.83,176.45c-25.24,24.97-34.5,63.63-20.39,98.56h0l52.75,130.57c10.13,1.92,20.57,2.93,31.25,2.93h0.22
		c9.86-0.01,19.52-0.87,28.91-2.51L532.83,176.45z"/>
	<path class="st0" d="M425.35,129.36c17.57,0,32.65,10.88,38.85,26.26l23.84,59.01l0,0l0.03,0.09
		c5.31-21.76,17.08-41.74,34.05-56.94c-6.56-47.59-47.39-84.25-96.78-84.25V129.36z"/>
	<g>
		<polygon class="st0" points="455.46,408.51 344.8,134.64 293.04,155.55 395.24,408.51 		"/>
		<polygon class="st0" points="52.98,408.51 163.63,134.64 215.39,155.55 113.19,408.51 		"/>
		<g>
			<polygon class="st0" points="351.07,243.3 386.53,155.55 334.76,134.64 320.97,168.78 			"/>
			<polygon class="st0" points="298.39,224.67 224.11,408.51 284.32,408.51 328.49,299.19 			"/>
		</g>
		<path class="st0" d="M425.35,73.53c-53.96,0-97.7,43.74-97.7,97.7c0,25.52,9.79,48.76,25.81,66.16l32.97-81.6
			c6.16-15.47,21.28-26.43,38.92-26.43V73.53z"/>
		<path class="st0" d="M254.22,73.53c-49.42,0-90.26,36.69-96.79,84.31c16.56,14.83,28.68,34.51,34.09,56.79l23.77-58.84
			c6.16-15.47,21.28-26.43,38.92-26.43c17.57,0,32.65,10.88,38.85,26.26l33.04,81.77c16.02-17.4,25.81-40.64,25.81-66.16
			C351.92,117.28,308.17,73.53,254.22,73.53z"/>
	</g>
</g>
</svg>
