<?xml version="1.0" encoding="utf-8"?>
<!-- Generator: Adobe Illustrator 24.3.0, SVG Export Plug-In . SVG Version: 6.00 Build 0)  -->
<svg version="1.1" id="Layer_1" xmlns="http://www.w3.org/2000/svg" xmlns:xlink="http://www.w3.org/1999/xlink" x="0px" y="0px"
	 viewBox="0 0 1329.53 759.83" style="enable-background:new 0 0 1329.53 759.83;" xml:space="preserve">
<style type="text/css">
	.st0{fill:#6610F2;}
</style>
<g>
	<rect x="917.02" y="529.7" class="st0" width="224.68" height="74.89"/>
	<g>
		<path class="st0" d="M778.38,436.61c-0.14-0.34-0.28-0.68-0.41-1.02l-0.04-0.09c0-0.01-0.01-0.02-0.01-0.03
			c-0.18-0.45-0.36-0.9-0.53-1.35c-0.01-0.02-0.01-0.03-0.02-0.05c-2.95-7.57-5.3-15.44-6.99-23.55l0-0.01l0,0
			c-0.32-1.52-0.61-3.05-0.88-4.59c-0.03-0.17-0.06-0.33-0.09-0.5c-0.07-0.41-0.14-0.82-0.21-1.23c-0.06-0.34-0.11-0.68-0.16-1.02
			c-0.04-0.23-0.07-0.46-0.11-0.69c-0.08-0.5-0.15-0.99-0.22-1.49c-0.01-0.08-0.02-0.16-0.03-0.24c-0.88-6.29-1.36-12.59-1.43-18.86
			c0,0,0-0.06,0-0.09c-0.01-0.52-0.01-1.03-0.01-1.54c0-0.11,0-0.23,0-0.34c0-0.15,0-0.29,0-0.44c0-0.15,0-0.3,0-0.45
			c0-0.27,0-0.54,0.01-0.81c0-0.11,0-0.22,0-0.32c0.01-0.51,0.02-1.02,0.03-1.53c0-0.17,0.01-0.33,0.01-0.5
			c0.01-0.5,0.03-1,0.05-1.5c0.01-0.16,0.01-0.32,0.02-0.48c0.02-0.5,0.04-1.01,0.07-1.51c0.01-0.15,0.02-0.31,0.02-0.46
			c0.02-0.44,0.05-0.87,0.07-1.3c0.01-0.13,0.02-0.27,0.02-0.4c0.03-0.51,0.07-1.01,0.11-1.52c0.01-0.16,0.02-0.32,0.04-0.49
			c0.04-0.5,0.08-1,0.12-1.49c0.01-0.15,0.03-0.3,0.04-0.46c0.05-0.51,0.09-1.02,0.15-1.53c0.01-0.11,0.02-0.23,0.04-0.34
			c0.05-0.46,0.1-0.92,0.15-1.37c0.01-0.12,0.03-0.25,0.04-0.37c0.06-0.5,0.12-0.99,0.18-1.48c0.02-0.18,0.04-0.35,0.07-0.52
			c0.06-0.48,0.13-0.97,0.19-1.45c0.02-0.15,0.04-0.31,0.07-0.46c0.07-0.47,0.13-0.93,0.2-1.39c0.02-0.14,0.04-0.28,0.06-0.42
			c0.07-0.44,0.14-0.87,0.21-1.3c0.03-0.16,0.05-0.32,0.08-0.48c0.08-0.48,0.16-0.95,0.25-1.42c0.03-0.18,0.06-0.35,0.09-0.52
			c0.08-0.47,0.17-0.93,0.26-1.4c0.03-0.16,0.06-0.32,0.09-0.49c0.08-0.43,0.17-0.85,0.25-1.28c0.03-0.15,0.06-0.29,0.09-0.44
			c0.09-0.45,0.19-0.9,0.29-1.35c0.03-0.14,0.06-0.29,0.09-0.43c0.11-0.48,0.21-0.96,0.32-1.43c0.04-0.16,0.07-0.31,0.11-0.46
			c0.11-0.46,0.21-0.91,0.33-1.37l0,0c4.32-17.78,11.83-34.33,21.88-49.01c15.69-23.06,37.95-42,65.43-53.59
			c17.91-7.59,37.6-11.79,58.24-11.79c82.59,0,149.79,67.19,149.79,149.79c0,50.08-24.7,94.49-62.56,121.7h101.67
			c22.64-35.07,35.78-76.85,35.78-121.7c0-124.09-100.59-224.68-224.68-224.68S692.34,255.83,692.34,379.91
			c0,97.37,61.94,180.27,148.56,211.46L778.38,436.61L778.38,436.61z"/>
		<path class="st0" d="M917.02,529.7c-29.46,0-56.96-8.55-80.16-23.3l38.08,94.26c13.63,2.58,27.69,3.93,42.07,3.93
			c66.54,0,126.33-28.93,167.47-74.89H917.02z"/>
	</g>
	<path class="st0" d="M831.54,293.29c-33.85,33.5-46.28,85.36-27.35,132.21h0l70.77,175.15c13.58,2.57,27.6,3.93,41.93,3.93h0.29
		c13.23-0.01,26.19-1.16,38.78-3.36L831.54,293.29z"/>
	<path class="st0" d="M687.35,230.13c23.57,0,43.8,14.6,52.12,35.23l31.98,79.16l0-0.01l0.05,0.12
		c7.12-29.19,22.92-55.99,45.67-76.38c-8.79-63.84-63.57-113.01-129.83-113.01V230.13z"/>
	<g>
		<polygon class="st0" points="727.74,604.6 579.3,237.2 509.87,265.26 646.97,604.6 		"/>
		<polygon class="st0" points="187.83,604.6 336.27,237.2 405.71,265.26 268.6,604.6 		"/>
		<g>
			<polygon class="st0" points="587.72,382.97 635.27,265.26 565.83,237.2 547.33,283.01 			"/>
			<polygon class="st0" points="517.04,357.98 417.4,604.6 498.17,604.6 557.42,457.94 			"/>
		</g>
		<path class="st0" d="M687.35,155.24c-72.38,0-131.06,58.68-131.06,131.06c0,34.24,13.13,65.41,34.62,88.75l44.23-109.46
			c8.26-20.75,28.55-35.46,52.21-35.46V155.24z"/>
		<path class="st0" d="M457.79,155.24c-66.29,0-121.08,49.22-129.84,113.1c22.21,19.89,38.47,46.3,45.74,76.18l31.89-78.93
			c8.26-20.75,28.55-35.46,52.21-35.46c23.57,0,43.8,14.6,52.12,35.23l44.32,109.69c21.5-23.35,34.62-54.52,34.62-88.75
			C588.85,213.92,530.17,155.24,457.79,155.24z"/>
	</g>
</g>
</svg>
